<?xml version="1.0" encoding="utf-8"?>
<!-- Generator: Adobe Illustrator 24.0.3, SVG Export Plug-In . SVG Version: 6.00 Build 0)  -->
<svg version="1.1" id="レイヤー_1" xmlns="http://www.w3.org/2000/svg" xmlns:xlink="http://www.w3.org/1999/xlink" x="0px"
	 y="0px" viewBox="0 0 32 32" style="enable-background:new 0 0 32 32;" xml:space="preserve">
<style type="text/css">
	.st0{fill:#323243;}
	.st1{fill:#FF4060;}
	.st2{fill:none;}
	.st3{fill:#FFFFFF;}
</style>
<g>
	<path class="st0" d="M9,30c-3.8599,0-7-3.1406-7-7V9c0-3.8599,3.1401-7,7-7h14c3.8594,0,7,3.1401,7,7v14c0,3.8594-3.1406,7-7,7H9z"
		/>
	<path class="st1" d="M23,4c2.757,0,5,2.243,5,5v14c0,2.757-2.243,5-5,5H9c-2.757,0-5-2.243-5-5V9c0-2.757,2.243-5,5-5H23 M23,0H9
		C4.0294,0,0,4.0294,0,9v14c0,4.9706,4.0294,9,9,9h14c4.9706,0,9-4.0294,9-9V9C32,4.0294,27.9706,0,23,0L23,0z"/>
</g>
<polygon class="st2" points="23.2229,22.5813 16.969,17.8792 17.8752,25.2546 14.1121,25.2546 14.9275,17.9558 8.7478,22.5891 
	6.8,19.2332 13.7053,16.0081 6.7585,12.9216 8.6042,9.5544 14.9685,14.2849 14.1111,6.7546 17.8733,6.7546 17.0129,14.2644 
	23.1868,9.5095 25.1858,12.9656 18.136,16.1018 25.2415,19.4729 "/>
<path class="st3" d="M24.8345,15.003l-0.8234-2.5341c-0.0893-0.2749-0.3935-0.4157-0.6609-0.306l-5.2664,2.1607
	c-0.3418,0.1402-0.7116-0.1284-0.6838-0.4968l0.4275-5.6763c0.0217-0.2882-0.2063-0.534-0.4953-0.534h-2.6645
	c-0.289,0-0.517,0.2458-0.4953,0.534L14.6,13.8267c0.0277,0.3684-0.3421,0.6371-0.6838,0.4968l-5.2664-2.1607
	c-0.2674-0.1097-0.5716,0.0312-0.6609,0.306L7.1655,15.003c-0.0893,0.2749,0.074,0.5677,0.3548,0.6361l5.5306,1.3475
	c0.3589,0.0874,0.5002,0.5222,0.2612,0.8039l-3.6824,4.3409c-0.187,0.2204-0.147,0.5533,0.0868,0.7231l2.1557,1.5662
	c0.2338,0.1699,0.5627,0.105,0.7146-0.1409l2.9906-4.8436c0.1941-0.3143,0.6512-0.3143,0.8453,0l2.9906,4.8436
	c0.1518,0.2459,0.4808,0.3108,0.7146,0.1409l2.1557-1.5662c0.2338-0.1699,0.2738-0.5027,0.0868-0.7231l-3.6824-4.341
	c-0.239-0.2817-0.0977-0.7164,0.2612-0.8039l5.5306-1.3475C24.7605,15.5706,24.9238,15.2778,24.8345,15.003z"/>
</svg>
